<?xml version="1.0" encoding="UTF-8"?>
<!DOCTYPE svg PUBLIC "-//W3C//DTD SVG 1.1//EN" "http://www.w3.org/Graphics/SVG/1.1/DTD/svg11.dtd">
<!-- Creator: CorelDRAW -->
<svg xmlns="http://www.w3.org/2000/svg" xml:space="preserve" width="4.3333mm" height="4.3333mm" version="1.1" style="shape-rendering:geometricPrecision; text-rendering:geometricPrecision; image-rendering:optimizeQuality; fill-rule:evenodd; clip-rule:evenodd"
viewBox="0 0 2.6 2.6"
 xmlns:xlink="http://www.w3.org/1999/xlink"
 xmlns:xodm="http://www.corel.com/coreldraw/odm/2003">
 <defs>
  <style type="text/css">
   <![CDATA[
    .str0 {stroke:#783BDD;stroke-width:0.06;stroke-miterlimit:22.9256}
    .fil0 {fill:none}
    .fil1 {fill:#783BDD}
   ]]>
  </style>
 </defs>
 <g id="Слой_x0020_1">
  <metadata id="CorelCorpID_0Corel-Layer"/>
  <rect class="fil0 str0" x="0.03" y="0.03" width="2.54" height="2.54" rx="0.25" ry="0.25"/>
  <g id="_2645818337200">
   <path class="fil1" d="M0.61 0.73c0.1,0 0.18,0.08 0.18,0.18 0,0.1 -0.08,0.18 -0.18,0.18 -0.1,0 -0.18,-0.08 -0.18,-0.18 0,-0.1 0.08,-0.18 0.18,-0.18zm0 -0.07c0.14,0 0.25,0.11 0.25,0.25 0,0.14 -0.11,0.25 -0.25,0.25 -0.14,0 -0.25,-0.11 -0.25,-0.25 0,-0.14 0.11,-0.25 0.25,-0.25z"/>
   <path class="fil1" d="M1.99 0.73c0.1,0 0.18,0.08 0.18,0.18 0,0.1 -0.08,0.18 -0.18,0.18 -0.1,0 -0.18,-0.08 -0.18,-0.18 0,-0.1 0.08,-0.18 0.18,-0.18zm0 -0.07c0.14,0 0.25,0.11 0.25,0.25 0,0.14 -0.11,0.25 -0.25,0.25 -0.14,0 -0.25,-0.11 -0.25,-0.25 0,-0.14 0.11,-0.25 0.25,-0.25z"/>
   <path class="fil1" d="M1.3 0.66c0.12,0 0.22,0.1 0.22,0.22 0,0.12 -0.1,0.22 -0.22,0.22 -0.12,0 -0.22,-0.1 -0.22,-0.22 0,-0.12 0.1,-0.22 0.22,-0.22zm0 -0.08c0.17,0 0.31,0.14 0.31,0.31 0,0.17 -0.14,0.31 -0.31,0.31 -0.17,0 -0.31,-0.14 -0.31,-0.31 0,-0.17 0.14,-0.31 0.31,-0.31z"/>
   <path class="fil1" d="M1.66 1.64c0,-0.03 0,-0.05 -0,-0.08 -0,-0.03 -0.01,-0.06 -0.03,-0.09 -0.01,-0.03 -0.03,-0.06 -0.04,-0.07 -0.02,-0.02 -0.02,-0.02 -0.03,-0.03 -0.05,0.04 -0.14,0.06 -0.25,0.06 -0.11,0 -0.2,-0.02 -0.25,-0.06 -0.01,0.01 -0.03,0.03 -0.04,0.04 -0.02,0.02 -0.03,0.05 -0.04,0.07 -0.01,0.03 -0.02,0.06 -0.03,0.09 -0,0.03 -0,0.05 -0,0.08l0 0.28 0.73 0 0 -0.29zm0.1 -0.06c-0,-0.02 -0.01,-0.06 -0.02,-0.09 -0.01,-0.03 -0.02,-0.06 -0.04,-0.08 -0.01,-0.02 -0.03,-0.05 -0.05,-0.07 -0.02,-0.02 -0.04,-0.04 -0.05,-0.05 -0.01,-0.01 -0.02,-0.01 -0.03,-0.02 -0.01,-0.01 -0.02,-0.01 -0.03,-0.01 -0.03,0.04 -0.13,0.08 -0.24,0.08 -0.11,0 -0.21,-0.03 -0.24,-0.08 -0.01,0 -0.04,0.02 -0.06,0.03 -0.01,0.01 -0.03,0.03 -0.05,0.05 -0.02,0.02 -0.03,0.04 -0.05,0.07 -0.01,0.02 -0.03,0.05 -0.04,0.08 -0.01,0.03 -0.01,0.07 -0.02,0.1l0 0.39c0,0.02 0.02,0.05 0.05,0.05l0.82 0c0.02,0 0.05,-0.02 0.05,-0.05l0 -0.4z"/>
   <path class="fil1" d="M0.77 1.8l-0.45 0c-0.02,0 -0.04,-0.02 -0.04,-0.04l0 -0.3c0,-0.03 0.01,-0.05 0.02,-0.08 0.01,-0.02 0.02,-0.05 0.03,-0.06 0.01,-0.02 0.02,-0.04 0.04,-0.05 0.01,-0.02 0.03,-0.03 0.04,-0.04 0.01,-0.01 0.04,-0.02 0.04,-0.02 0.03,0.03 0.1,0.06 0.19,0.06 0.09,0 0.16,-0.03 0.19,-0.06 0,0 0.01,0.01 0.02,0.01 0.01,0 0.02,0.01 0.02,0.01 0.01,0.01 0.03,0.02 0.04,0.04 0.01,0.01 0.02,0.02 0.03,0.03 0,0.02 -0.02,0.04 -0.04,0.04 -0.01,0 -0.01,-0 -0.02,-0 -0.01,-0.01 -0.01,-0.02 -0.02,-0.03 -0.01,-0.02 -0.01,-0.02 -0.02,-0.03 -0.04,0.03 -0.11,0.05 -0.2,0.05 -0.08,0 -0.16,-0.02 -0.19,-0.05 -0.01,0.01 -0.02,0.02 -0.03,0.03 -0.01,0.02 -0.02,0.04 -0.03,0.06 -0.01,0.02 -0.02,0.05 -0.02,0.07 -0,0.02 -0,0.04 -0,0.06l0 0.22 0.41 0c0.01,0.01 0.02,0.02 0.02,0.04 0,0.01 -0.01,0.03 -0.02,0.03z"/>
   <path class="fil1" d="M1.83 1.8l0.45 0c0.02,0 0.04,-0.02 0.04,-0.04l0 -0.3c-0,-0.03 -0.01,-0.05 -0.02,-0.08 -0.01,-0.02 -0.02,-0.05 -0.03,-0.06 -0.01,-0.02 -0.02,-0.04 -0.04,-0.05 -0.01,-0.02 -0.03,-0.03 -0.04,-0.04 -0.01,-0.01 -0.04,-0.02 -0.04,-0.02 -0.03,0.03 -0.1,0.06 -0.19,0.06 -0.09,0 -0.16,-0.03 -0.19,-0.06 -0,0 -0.01,0.01 -0.02,0.01 -0.01,0 -0.02,0.01 -0.02,0.01 -0.01,0.01 -0.03,0.02 -0.04,0.04 -0.01,0.01 -0.02,0.02 -0.03,0.03 0,0.02 0.02,0.04 0.04,0.04 0.01,0 0.01,-0 0.02,-0 0.01,-0.01 0.01,-0.02 0.02,-0.03 0.01,-0.02 0.01,-0.02 0.02,-0.03 0.04,0.03 0.11,0.05 0.2,0.05 0.08,0 0.16,-0.02 0.19,-0.05 0.01,0.01 0.02,0.02 0.03,0.03 0.01,0.02 0.02,0.04 0.03,0.06 0.01,0.02 0.02,0.05 0.02,0.07 0,0.02 0,0.04 0,0.06l0 0.22 -0.41 0c-0.01,0.01 -0.02,0.02 -0.02,0.04 0,0.01 0.01,0.03 0.02,0.03z"/>
  </g>
 </g>
</svg>
