<?xml version="1.0" encoding="UTF-8"?>
<!DOCTYPE svg PUBLIC "-//W3C//DTD SVG 1.1//EN" "http://www.w3.org/Graphics/SVG/1.1/DTD/svg11.dtd">
<!-- Creator: CorelDRAW -->
<svg xmlns="http://www.w3.org/2000/svg" xml:space="preserve" width="4.3333mm" height="4.3333mm" version="1.1" style="shape-rendering:geometricPrecision; text-rendering:geometricPrecision; image-rendering:optimizeQuality; fill-rule:evenodd; clip-rule:evenodd"
viewBox="0 0 2.64 2.64"
 xmlns:xlink="http://www.w3.org/1999/xlink"
 xmlns:xodm="http://www.corel.com/coreldraw/odm/2003">
 <defs>
  <style type="text/css">
   <![CDATA[
    .str0 {stroke:#783BDD;stroke-width:0.06;stroke-miterlimit:22.9256}
    .fil0 {fill:none}
    .fil1 {fill:#783BDD}
   ]]>
  </style>
 </defs>
 <g id="Слой_x0020_1">
  <metadata id="CorelCorpID_0Corel-Layer"/>
  <rect class="fil0 str0" x="0.03" y="0.03" width="2.58" height="2.58" rx="0.26" ry="0.26"/>
  <g id="_2645852262160">
   <ellipse class="fil1" cx="1.78" cy="0.74" rx="0.27" ry="0.29"/>
   <path class="fil1" d="M1.46 2.22c-0.03,0 -0.05,-0.01 -0.05,-0.03l0.02 -0.76 -0.01 -0 -0.01 0 -0.03 0.03 -0.04 0.04 -0.07 0.06 -0.04 0.03 -0.03 0.01 -0.03 0 -0.03 -0.01 -0.05 -0.05 -0.36 -0.38 -0.04 -0.04 -0.02 -0.02 0 -0.03 0.01 -0.02 0.03 -0.03 -0.47 -0.51 -0.06 -0.07 -0.01 -0.01 -0 -0.01 0.01 -0.02 0.02 -0.01 0.02 0 0.54 0.58 0.02 -0.03 0.03 -0.03 0.02 -0 0.02 0 0.34 0.35 0.21 -0.21c0.01,-0.01 0.04,-0.04 0.06,-0.04l0.6 0c0.02,0 0.07,0.03 0.08,0.05l0.3 0.34 0.01 0.05 -0 0.05 -0.04 0.05 -0.28 0.26 -0.02 0.02 -0.01 0 -0.02 -0 -0.01 -0.01 -0.12 -0.13 -0.01 -0.02 -0 -0.02 0.01 -0.02 0.03 -0.03 0.17 -0.16 -0.2 -0.21 -0.02 -0.01 -0.02 -0.01 -0.01 0 -0.04 0.03 -0.24 0.24 -0.02 0.02 -0.01 0.02 -0 0.02 0 0.02 0.36 0.38 0.04 0.05 0.02 0.01 0.01 0 0.01 -0 0.02 -0.01 0.02 -0.02 0.02 -0.02 0.01 -0.01 0.01 0 0.01 0.02 0.01 0.2c0,0.02 -0.02,0.03 -0.03,0.03l-0.65 0z"/>
  </g>
 </g>
</svg>
