<?xml version="1.0" encoding="UTF-8"?>
<!DOCTYPE svg PUBLIC "-//W3C//DTD SVG 1.1//EN" "http://www.w3.org/Graphics/SVG/1.1/DTD/svg11.dtd">
<!-- Creator: CorelDRAW -->
<svg xmlns="http://www.w3.org/2000/svg" xml:space="preserve" width="4.3333mm" height="4.3333mm" version="1.1" style="shape-rendering:geometricPrecision; text-rendering:geometricPrecision; image-rendering:optimizeQuality; fill-rule:evenodd; clip-rule:evenodd"
viewBox="0 0 2.57 2.57"
 xmlns:xlink="http://www.w3.org/1999/xlink"
 xmlns:xodm="http://www.corel.com/coreldraw/odm/2003">
 <defs>
  <style type="text/css">
   <![CDATA[
    .str0 {stroke:#783BDD;stroke-width:0.06;stroke-miterlimit:22.9256}
    .fil0 {fill:none}
    .fil1 {fill:#783BDD}
   ]]>
  </style>
 </defs>
 <g id="Слой_x0020_1">
  <metadata id="CorelCorpID_0Corel-Layer"/>
  <rect class="fil0 str0" x="0.03" y="0.03" width="2.51" height="2.51" rx="0.25" ry="0.25"/>
  <g id="_2644272376400">
   <path class="fil1" d="M0.28 2.05c0,0.01 0.01,0.04 0.04,0.04 0.02,0 0.09,-0.04 0.12,-0.05l0.11 -0.05c0.02,-0.01 0.06,0.04 0.09,0.07 0.03,0.03 0.06,0.05 0.1,0.07 0.04,0.02 0.07,0.04 0.11,0.06 0.11,0.05 0.13,0.05 0.25,0.08 0.04,0.01 0.15,0.02 0.2,0.02l0.03 0c0.01,-0 0.02,-0 0.03,-0 0.01,-0 0.03,0 0.04,-0 0.14,-0.01 0.27,-0.05 0.39,-0.1 0.1,-0.05 0.22,-0.13 0.3,-0.2 0.06,-0.06 0.11,-0.09 0.06,-0.13l-0.17 -0.15c-0.04,-0.04 -0.07,-0.08 -0.11,-0.04 -0.01,0.01 -0.01,0.02 -0.02,0.03 -0.07,0.06 -0.08,0.08 -0.18,0.13 -0.17,0.09 -0.35,0.11 -0.54,0.05 -0.04,-0.01 -0.08,-0.03 -0.12,-0.04l-0.03 -0.01c-0.01,-0 -0,-0 -0.01,-0.01 0.03,-0.01 0.07,-0.03 0.1,-0.04 0.11,-0.05 0.11,-0.07 0.01,-0.14l-0.25 -0.18c-0.12,-0.08 -0.26,-0.19 -0.38,-0.27 -0.09,-0.06 -0.08,0.04 -0.09,0.09 -0.01,0.09 -0.02,0.18 -0.02,0.27 -0.01,0.06 -0.05,0.48 -0.05,0.53z"/>
   <path class="fil1" d="M0.39 0.68c0,0.04 0.04,0.06 0.07,0.09l0.1 0.09c0.01,0.01 0.01,0.01 0.02,0.02 0.01,0.01 0.02,0.02 0.03,0.03 0.06,0.06 0.09,-0 0.1,-0.02 0.1,-0.09 0.19,-0.15 0.33,-0.19 0.17,-0.05 0.4,-0.02 0.54,0.06 0.01,0 0,0 0.01,0.01 -0.02,0 -0.12,0.05 -0.15,0.07 -0.04,0.02 -0.05,0.05 -0.01,0.08 0.01,0.01 0.03,0.02 0.04,0.03l0.64 0.45c0.09,0.06 0.08,-0.04 0.09,-0.09 0.01,-0.09 0.02,-0.18 0.02,-0.27 0.01,-0.09 0.02,-0.18 0.03,-0.26 0,-0.05 0.01,-0.09 0.01,-0.13 0,-0.03 0.01,-0.07 0.01,-0.1l0 -0.02c-0,-0.03 -0.01,-0.04 -0.04,-0.04 -0.02,0 -0.04,0.01 -0.06,0.02l-0.11 0.05c-0.11,0.05 -0.03,0.02 -0.25,-0.11 -0.12,-0.07 -0.28,-0.13 -0.43,-0.15 -0.03,-0 -0.09,-0.01 -0.13,-0.01l-0.03 0c-0.01,0 -0.02,0 -0.03,0 -0.06,0 -0.04,-0 -0.12,0.01 -0.1,0.01 -0.23,0.05 -0.32,0.09 -0.1,0.04 -0.22,0.13 -0.3,0.2 -0.02,0.02 -0.08,0.07 -0.08,0.09z"/>
  </g>
 </g>
</svg>
