<?xml version="1.0" encoding="UTF-8"?>
<!DOCTYPE svg PUBLIC "-//W3C//DTD SVG 1.1//EN" "http://www.w3.org/Graphics/SVG/1.1/DTD/svg11.dtd">
<!-- Creator: CorelDRAW -->
<svg xmlns="http://www.w3.org/2000/svg" xml:space="preserve" width="4.3333mm" height="4.3333mm" version="1.1" style="shape-rendering:geometricPrecision; text-rendering:geometricPrecision; image-rendering:optimizeQuality; fill-rule:evenodd; clip-rule:evenodd"
viewBox="0 0 2.6 2.6"
 xmlns:xlink="http://www.w3.org/1999/xlink"
 xmlns:xodm="http://www.corel.com/coreldraw/odm/2003">
 <defs>
  <style type="text/css">
   <![CDATA[
    .str0 {stroke:#783BDD;stroke-width:0.06;stroke-miterlimit:22.9256}
    .fil0 {fill:none}
    .fil1 {fill:#783BDD}
   ]]>
  </style>
 </defs>
 <g id="Слой_x0020_1">
  <metadata id="CorelCorpID_0Corel-Layer"/>
  <rect class="fil0 str0" x="0.03" y="0.03" width="2.54" height="2.54" rx="0.25" ry="0.25"/>
  <g id="_2645827474512">
   <path class="fil1" d="M0.98 0.85c-0.03,0.04 -0.11,0.3 -0.12,0.38 -0,0.04 0.02,0.01 0.13,0.04 0.18,0.04 0.29,0.15 0.37,0.3 0.02,0.03 0.03,0.08 0.05,0.12 0.05,0.13 0.03,0.24 0.13,0.37 0.06,0.08 0.1,0.1 0.2,0.13 0.06,0.02 0.08,-0 0.12,-0.03 0.09,-0.06 0.19,-0.15 0.25,-0.24 0.01,-0.01 0.06,-0.08 0.06,-0.1 0,-0.01 -0.04,-0.11 -0.04,-0.12 -0.03,-0.08 -0.12,-0.25 -0.18,-0.31 -0.01,-0.01 -0.02,-0.03 -0.04,-0.05 -0.01,-0.02 -0.03,-0.03 -0.04,-0.05 -0.06,-0.06 -0.14,-0.14 -0.22,-0.19 -0.16,-0.11 -0.32,-0.18 -0.52,-0.22 -0.04,-0.01 -0.11,-0.02 -0.15,-0.02z"/>
   <path class="fil1" d="M1.15 0.58c-0.02,0.03 -0.06,0.08 -0.1,0.14 -0.01,0.02 -0.03,0.03 -0.02,0.05 0.15,0.01 0.3,0.06 0.42,0.11 0.15,0.06 0.29,0.16 0.4,0.26 0.16,0.15 0.24,0.26 0.34,0.46 0.01,0.03 0.03,0.08 0.05,0.09 0.02,-0.03 0.06,-0.18 0.07,-0.24 0.01,-0.12 0.01,-0.3 -0.02,-0.41 -0.01,-0.02 -0.01,-0.04 -0.02,-0.06 -0.02,-0.06 -0.09,-0.2 -0.13,-0.26 -0.04,-0.06 -0.1,-0.1 -0.17,-0.13 -0.09,-0.04 -0.23,-0.03 -0.33,0 -0.1,0.03 -0.08,0.03 -0.2,0.03 -0.04,-0 -0.11,-0.01 -0.14,-0.02l-0.13 -0.02z"/>
   <path class="fil1" d="M1.67 2.25l-0.02 -0.01c-0.01,-0 -0.01,-0 -0.02,-0.01 -0.01,-0.01 -0.02,-0.01 -0.04,-0.02 -0.04,-0.02 -0.04,-0.02 -0.07,-0.05 -0.08,-0.08 -0.13,-0.18 -0.15,-0.29 -0.04,-0.14 -0.04,-0.19 -0.12,-0.33 -0.07,-0.12 -0.22,-0.2 -0.36,-0.2 -0.02,-0 -0.04,-0.01 -0.04,0.01l0 0.17c0,0.04 0.01,0.06 0.01,0.1l0.04 0.18c0.02,0.05 0.04,0.11 0.06,0.16 0.04,0.1 0.12,0.23 0.19,0.31 0.04,0.04 0.02,0.05 0.12,0.05 0.07,-0 0.14,-0.01 0.2,-0.02 0.03,-0.01 0.15,-0.04 0.18,-0.05z"/>
   <path class="fil1" d="M1.06 2.29c-0,-0.02 -0.04,-0.06 -0.06,-0.09 -0.02,-0.03 -0.04,-0.06 -0.06,-0.09 -0.14,-0.24 -0.18,-0.48 -0.18,-0.77 -0.03,-0 -0.15,0.04 -0.17,0.06 -0.12,0.07 -0.17,0.16 -0.16,0.31 0,0.04 0,0.07 0.01,0.11 0.02,0.08 0.02,0.07 0.09,0.15 0.07,0.08 0.2,0.19 0.3,0.24 0.05,0.02 0.17,0.08 0.22,0.08z"/>
   <path class="fil1" d="M0.28 1.33c0,0.07 0.02,0.19 0.04,0.25l0.02 0.05c0.01,0.02 -0,0.01 0.01,0.02 0.01,-0.02 -0,-0.02 0.02,-0.08 0.01,-0.03 0.02,-0.05 0.03,-0.08 0.02,-0.04 0.05,-0.08 0.09,-0.11 0.06,-0.05 0.13,-0.08 0.21,-0.1 0.13,-0.03 0.07,0 0.1,-0.13 0.03,-0.12 0.02,-0.09 0.06,-0.2 0.01,-0.02 0.03,-0.08 0.03,-0.09 -0.13,-0.02 -0.4,0.07 -0.52,0.16 -0.06,0.05 -0.05,0.02 -0.07,0.13 -0,0.02 -0,0.04 -0.01,0.06 -0.01,0.05 -0.01,0.08 -0.01,0.13z"/>
   <path class="fil1" d="M0.37 0.9c0.02,-0 0.08,-0.04 0.11,-0.05 0.14,-0.06 0.29,-0.08 0.45,-0.08 0.02,-0.03 0.06,-0.1 0.1,-0.15 0.01,-0.01 0.03,-0.04 0.03,-0.05 -0.02,-0.02 -0.13,-0.04 -0.15,-0.19 -0.03,-0 -0.14,0.07 -0.17,0.09 -0.06,0.04 -0.16,0.13 -0.21,0.19 -0.02,0.03 -0.04,0.05 -0.06,0.08 -0.03,0.04 -0.09,0.13 -0.1,0.18z"/>
   <path class="fil1" d="M1.23 0.5c0.08,0.01 0.15,0.02 0.24,0.02 0.04,0 0.07,-0 0.11,-0.01 0.08,-0.02 0.07,-0.04 0.2,-0.04 0.03,-0 0.1,0.01 0.11,0 -0.01,-0.02 -0.13,-0.08 -0.16,-0.1 -0.06,-0.03 -0.12,-0.05 -0.19,-0.07 -0.06,-0.01 -0.05,-0.02 -0.09,0.01 -0.04,0.02 -0.2,0.14 -0.21,0.18z"/>
   <path class="fil1" d="M1.34 0.28c-0.09,-0.01 -0.18,0.01 -0.24,0.02 -0.03,0.01 -0.09,0.01 -0.1,0.04 -0.02,0.06 0.07,0.15 0.13,0.14 0.01,-0 0.01,-0.01 0.02,-0.01 0,-0 0,-0 0,-0.01 0,-0 0,-0 0,-0.01 0.02,-0.03 0.12,-0.11 0.15,-0.14 0.01,-0 0.01,-0.01 0.02,-0.01 0.01,-0.01 0.01,-0 0.02,-0.02z"/>
  </g>
 </g>
</svg>
