<?xml version="1.0" encoding="UTF-8"?>
<!DOCTYPE svg PUBLIC "-//W3C//DTD SVG 1.1//EN" "http://www.w3.org/Graphics/SVG/1.1/DTD/svg11.dtd">
<!-- Creator: CorelDRAW -->
<svg xmlns="http://www.w3.org/2000/svg" xml:space="preserve" width="4.3333mm" height="4.3333mm" version="1.1" style="shape-rendering:geometricPrecision; text-rendering:geometricPrecision; image-rendering:optimizeQuality; fill-rule:evenodd; clip-rule:evenodd"
viewBox="0 0 2.72 2.72"
 xmlns:xlink="http://www.w3.org/1999/xlink"
 xmlns:xodm="http://www.corel.com/coreldraw/odm/2003">
 <defs>
  <style type="text/css">
   <![CDATA[
    .str0 {stroke:#50AEAB;stroke-width:0.06;stroke-miterlimit:22.9256}
    .fil0 {fill:none}
    .fil1 {fill:#50AEAB}
   ]]>
  </style>
 </defs>
 <g id="Слой_x0020_1">
  <metadata id="CorelCorpID_0Corel-Layer"/>
  <rect class="fil0 str0" x="0.03" y="0.03" width="2.65" height="2.65" rx="0.27" ry="0.27"/>
  <g id="_2645827511312">
   <path class="fil1" d="M0.63 2.18c0,0.07 0.07,0.09 0.12,0.12 0.02,0.01 0.04,0.02 0.06,0.03 0.04,0.02 0.07,0.03 0.11,0.04 0.21,0.06 0.48,0.07 0.7,0.04 0.1,-0.01 0.19,-0.03 0.28,-0.07 0.04,-0.02 0.16,-0.07 0.18,-0.11 0.01,-0.02 0.01,-0.03 0.01,-0.05 0,-0.07 -0.04,-0.15 -0.08,-0.21 -0,-0.01 -0.01,-0.01 -0.01,-0.02 -0.02,-0.02 -0.02,-0.03 -0.05,-0.05 -0.02,-0.02 -0.06,-0.05 -0.09,-0.07 -0.01,-0.01 -0.02,-0.02 -0.04,-0.02 -0.09,-0.05 -0.17,-0.08 -0.28,-0.11 -0.01,0.01 -0.18,0.14 -0.19,0.14 -0.01,-0.01 -0.12,-0.09 -0.14,-0.11l-0.04 -0.03c-0.01,-0 -0.01,-0.01 -0.01,-0.01 -0.03,0.01 -0.07,0.02 -0.1,0.03 -0.06,0.02 -0.12,0.05 -0.18,0.08 -0.03,0.02 -0.09,0.05 -0.11,0.08 -0.03,0.03 -0.05,0.04 -0.08,0.08 -0.03,0.04 -0.04,0.06 -0.06,0.1 -0.01,0.02 -0.02,0.07 -0.02,0.11z"/>
   <path class="fil1" d="M0.97 0.95c0,0.14 0.06,0.24 0.13,0.33 0.04,0.06 0.04,0.07 0.05,0.13 0,0.02 0.02,0.06 0.03,0.06l0.09 0c0,-0.01 -0,-0.02 -0,-0.03l-0.06 -0.28c-0.01,-0.02 -0.02,-0.06 -0.01,-0.07 0.02,-0.03 0.07,0.01 0.11,0.04l0.02 -0.05c0.01,-0.02 0.01,-0.04 0.03,-0.04 0.02,0 0.03,0.02 0.03,0.04 0.01,0.01 0.02,0.03 0.02,0.05 0.04,-0.02 0.08,-0.07 0.1,-0.04 0.01,0.01 -0,0.05 -0.01,0.07 -0.01,0.03 -0.07,0.29 -0.07,0.31l0.09 0c0.01,0 0.02,-0.01 0.02,-0.02 0.02,-0.03 0.02,-0.07 0.03,-0.11 0.03,-0.07 0.08,-0.08 0.14,-0.24 0.03,-0.08 0.04,-0.18 0.02,-0.26 -0.03,-0.11 -0.11,-0.19 -0.21,-0.23 -0.25,-0.11 -0.56,0.06 -0.56,0.34z"/>
   <path class="fil1" d="M1.32 1.19c-0.02,0 -0.02,-0 -0.03,-0.01 -0.01,-0.01 -0.02,-0.01 -0.03,-0.02 0,0.01 0.01,0.06 0.02,0.08l0.05 0.2c0,0.01 0,0.01 0,0.02 0,0.02 -0.01,0.02 0.05,0.02 0.01,0 0.01,-0.02 0.01,-0.03 0,-0.01 0.01,-0.03 0.01,-0.04l0.06 -0.24c-0.01,0 -0.01,0.01 -0.01,0.01 -0.02,0.02 -0.05,0.04 -0.07,-0 -0,-0.01 -0.01,-0.02 -0.01,-0.03l-0 0c-0,0.01 -0.01,0.02 -0.01,0.03 -0,0.01 -0.01,0.02 -0.02,0.02z"/>
   <path class="fil1" d="M1.32 1.67c0.01,0.03 0.04,0.04 0.06,0.02 0.01,-0.01 0.01,-0.01 0.01,-0.02 0.05,0 0.12,-0.04 0.13,-0.08l-0.33 0c0.01,0.04 0.07,0.08 0.13,0.08z"/>
   <polygon class="fil1" points="1.18,1.55 1.53,1.55 1.53,1.51 1.18,1.51 "/>
   <path class="fil1" d="M0.63 0.97c0,0.02 0.02,0.02 0.03,0.02l0.14 0c0.04,0 0.05,-0.05 -0,-0.05 -0.03,0 -0.14,-0 -0.16,0 -0.01,0 -0.01,0.01 -0.01,0.02z"/>
   <path class="fil1" d="M1.87 0.97c0,0.02 0.01,0.03 0.03,0.03l0.14 0c0.02,0 0.03,-0.01 0.03,-0.02 -0,-0.02 -0.02,-0.02 -0.03,-0.02l-0.14 0c-0.01,0 -0.03,0.01 -0.03,0.02z"/>
   <path class="fil1" d="M0.72 0.64c0,0.02 0.03,0.03 0.05,0.04 0.01,0.01 0.1,0.05 0.11,0.05 0.02,0 0.03,-0.02 0.01,-0.04 -0.01,-0.01 -0.03,-0.02 -0.05,-0.03 -0.01,-0 -0.1,-0.05 -0.1,-0.05 -0.01,0 -0.03,0.01 -0.03,0.02z"/>
   <path class="fil1" d="M1.82 0.74c0.01,0 0.03,-0.01 0.04,-0.02l0.08 -0.04c0.03,-0.02 0.04,-0.01 0.04,-0.04 0,-0.01 -0.02,-0.02 -0.02,-0.01 -0.01,0 -0.07,0.04 -0.08,0.04 -0.01,0 -0.06,0.03 -0.07,0.04 -0.01,0.01 -0,0.04 0.02,0.04z"/>
   <path class="fil1" d="M1.8 1.22c0,0.02 0.02,0.02 0.03,0.03 0.02,0.01 0.03,0.01 0.04,0.02 0.01,0.01 0.08,0.04 0.08,0.04 0.02,0 0.03,-0.02 0.01,-0.04l-0.12 -0.07c-0.01,-0 -0.02,-0.01 -0.03,-0.01 -0.01,0 -0.02,0.01 -0.02,0.02z"/>
   <path class="fil1" d="M0.75 1.31c0.01,0 0.07,-0.04 0.08,-0.04 0.01,-0.01 0.08,-0.04 0.08,-0.05 0,-0.01 -0,-0.03 -0.02,-0.03l-0.14 0.07c-0.03,0.02 -0.01,0.04 0.01,0.04z"/>
   <path class="fil1" d="M1.34 0.33l0 0.13c0,0.04 0.05,0.04 0.05,-0l0 -0.13c0,-0.01 -0,-0.01 -0.01,-0.02 -0.01,-0.02 -0.04,-0.01 -0.04,0.02z"/>
   <path class="fil1" d="M1.6 0.53c0,0.02 0.03,0.03 0.04,0.01 0,-0.01 0.01,-0.01 0.01,-0.02l0.07 -0.11c0,-0.03 -0.02,-0.04 -0.04,-0.01 -0.01,0.01 -0.08,0.13 -0.08,0.14z"/>
   <path class="fil1" d="M0.98 0.41c0,0.01 0.04,0.06 0.04,0.08 0.01,0.01 0.02,0.03 0.02,0.04 0,0 0.02,0.05 0.05,0.03 0.02,-0.02 -0,-0.03 -0.01,-0.05l-0.05 -0.08c-0.01,-0.01 -0.01,-0.03 -0.03,-0.03 -0.01,0 -0.02,0.01 -0.02,0.02z"/>
  </g>
 </g>
</svg>
