<?xml version="1.0" encoding="UTF-8"?>
<!DOCTYPE svg PUBLIC "-//W3C//DTD SVG 1.1//EN" "http://www.w3.org/Graphics/SVG/1.1/DTD/svg11.dtd">
<!-- Creator: CorelDRAW -->
<svg xmlns="http://www.w3.org/2000/svg" xml:space="preserve" width="4.3333mm" height="4.3333mm" version="1.1" style="shape-rendering:geometricPrecision; text-rendering:geometricPrecision; image-rendering:optimizeQuality; fill-rule:evenodd; clip-rule:evenodd"
viewBox="0 0 2.68 2.68"
 xmlns:xlink="http://www.w3.org/1999/xlink"
 xmlns:xodm="http://www.corel.com/coreldraw/odm/2003">
 <defs>
  <style type="text/css">
   <![CDATA[
    .str0 {stroke:#50AEAB;stroke-width:0.06;stroke-miterlimit:22.9256}
    .fil0 {fill:none}
    .fil1 {fill:#50AEAB}
   ]]>
  </style>
 </defs>
 <g id="Слой_x0020_1">
  <metadata id="CorelCorpID_0Corel-Layer"/>
  <rect class="fil0 str0" x="0.03" y="0.03" width="2.62" height="2.62" rx="0.26" ry="0.26"/>
  <path class="fil1" d="M2.18 1.52l0 0.38 -0.26 -0.38 -0.21 0c0,-0.02 0.01,-0.03 0.01,-0.05l0 -0.53c0,-0.13 -0.1,-0.23 -0.23,-0.23l-0.44 0 0 -0.02c0,-0.09 0.07,-0.17 0.17,-0.17l1.01 0c0.09,0 0.17,0.07 0.17,0.17l0 0.67c0,0.09 -0.07,0.17 -0.17,0.17l-0.04 0zm-1.63 0.25l-0.09 0c-0.09,0 -0.17,-0.07 -0.17,-0.17l0 -0.67c0,-0.09 0.07,-0.17 0.17,-0.17l1.01 0c0.09,0 0.17,0.07 0.17,0.17l0 0.67c0,0.09 -0.07,0.17 -0.17,0.17l-0.67 0 -0.26 0.38 0 -0.38zm0.35 -0.42c0,-0.03 0,-0.06 0.01,-0.08 0.01,-0.02 0.02,-0.04 0.03,-0.06 0.01,-0.02 0.02,-0.03 0.03,-0.05 0.01,-0.01 0.02,-0.03 0.03,-0.04 0.01,-0.01 0.01,-0.03 0.01,-0.05 0,-0.02 -0.01,-0.04 -0.02,-0.05 -0.01,-0.01 -0.03,-0.02 -0.04,-0.02 -0.02,0 -0.03,0.01 -0.04,0.02 -0.01,0.01 -0.02,0.03 -0.02,0.06l0 0 -0.1 0 0 -0c0,-0.05 0.02,-0.09 0.04,-0.12 0.03,-0.03 0.07,-0.04 0.11,-0.04 0.05,0 0.09,0.01 0.12,0.04 0.03,0.03 0.04,0.06 0.04,0.11l0 0c0,0.02 -0,0.04 -0.01,0.06 -0.01,0.02 -0.01,0.03 -0.02,0.04 -0.01,0.01 -0.02,0.03 -0.03,0.04 -0.01,0.01 -0.02,0.02 -0.03,0.04 -0.01,0.01 -0.02,0.03 -0.02,0.04 -0.01,0.02 -0.01,0.04 -0.01,0.06l-0.1 0zm-0 0.16l0 -0.1 0.1 0 0 0.1 -0.1 0z"/>
 </g>
</svg>
