<?xml version="1.0" encoding="UTF-8"?>
<!DOCTYPE svg PUBLIC "-//W3C//DTD SVG 1.1//EN" "http://www.w3.org/Graphics/SVG/1.1/DTD/svg11.dtd">
<!-- Creator: CorelDRAW -->
<svg xmlns="http://www.w3.org/2000/svg" xml:space="preserve" width="4.3333mm" height="4.3333mm" version="1.1" style="shape-rendering:geometricPrecision; text-rendering:geometricPrecision; image-rendering:optimizeQuality; fill-rule:evenodd; clip-rule:evenodd"
viewBox="0 0 2.57 2.57"
 xmlns:xlink="http://www.w3.org/1999/xlink"
 xmlns:xodm="http://www.corel.com/coreldraw/odm/2003">
 <defs>
  <style type="text/css">
   <![CDATA[
    .str0 {stroke:#783BDD;stroke-width:0.06;stroke-miterlimit:22.9256}
    .fil0 {fill:none}
    .fil1 {fill:#783BDD}
   ]]>
  </style>
 </defs>
 <g id="Слой_x0020_1">
  <metadata id="CorelCorpID_0Corel-Layer"/>
  <rect class="fil0 str0" x="0.03" y="0.03" width="2.51" height="2.51" rx="0.25" ry="0.25"/>
  <g id="_2645826104576">
   <g>
    <path class="fil1" d="M0.63 1.61l-0.14 0c-0.03,0 -0.06,-0.03 -0.06,-0.06l0 -0.97 -0.04 0 0 1.08 0.25 -0 0.02 0.1 -0.32 -0c-0.03,0 -0.05,-0.02 -0.05,-0.05l0 -1.17c0,-0.03 0.02,-0.05 0.05,-0.05l0.1 0 0 -0.08c0,-0.03 0.03,-0.06 0.06,-0.06l0.28 0 0.33 0c0.08,0 0.15,0.05 0.18,0.13 0.03,-0.07 0.1,-0.13 0.18,-0.13l0.33 0 0.28 0c0.03,0 0.06,0.03 0.06,0.06l0 0.08 0.1 0c0.03,0 0.05,0.02 0.05,0.05l0 1.17c0,0.03 -0.02,0.05 -0.05,0.05l-0.31 0 0.02 -0.1 0.26 0 0 -1.08 -0.06 0 0 0.97c0,0.03 -0.03,0.06 -0.06,0.06l-0.14 0 -0.02 -0.1 0.11 0 0 -1.08 -0.57 0c-0.07,0 -0.13,0.06 -0.13,0.13l0 0.44 -0.11 0 0 -0.44c0,-0.07 -0.06,-0.13 -0.13,-0.13l-0.57 0 0 1.08 0.11 0 -0.02 0.1z"/>
    <rect class="fil1" x="0.88" y="0.54" width="0.24" height="0.1"/>
    <rect class="fil1" x="1.68" y="0.54" width="0.24" height="0.1"/>
    <rect class="fil1" x="0.64" y="0.72" width="0.48" height="0.1"/>
    <rect class="fil1" x="1.45" y="0.73" width="0.48" height="0.1"/>
    <rect class="fil1" x="0.64" y="0.91" width="0.47" height="0.1"/>
    <rect class="fil1" x="1.45" y="0.92" width="0.47" height="0.1"/>
    <polygon class="fil1" points="0.81,1.2 0.64,1.2 0.64,1.1 0.92,1.1 "/>
    <polygon class="fil1" points="1.76,1.21 1.92,1.21 1.92,1.11 1.65,1.11 "/>
   </g>
   <circle class="fil1" cx="1.29" cy="1.66" r="0.16"/>
   <path class="fil1" d="M1.29 1.36c0.16,0 0.3,0.13 0.3,0.3 0,0.16 -0.13,0.3 -0.3,0.3 -0.16,0 -0.3,-0.13 -0.3,-0.3 0,-0.16 0.13,-0.3 0.3,-0.3zm-0.57 0.21c0.08,-0.01 0.14,-0.07 0.14,-0.15 0,-0.04 -0.01,-0.07 -0.03,-0.1 0.03,-0.05 0.07,-0.09 0.12,-0.12 0.03,0.02 0.06,0.03 0.1,0.03 0.08,0 0.15,-0.06 0.16,-0.14 0.03,-0 0.06,-0.01 0.09,-0.01 0.03,0 0.05,0 0.08,0.01 0,0.08 0.07,0.15 0.16,0.15 0.04,0 0.08,-0.02 0.1,-0.04 0.04,0.03 0.08,0.07 0.11,0.11 -0.03,0.03 -0.04,0.07 -0.04,0.11 0,0.09 0.07,0.16 0.16,0.16 0,0.03 0.01,0.06 0.01,0.09 0,0.03 -0,0.06 -0.01,0.09 -0.08,0 -0.15,0.07 -0.15,0.16 0,0.04 0.02,0.08 0.04,0.11 -0.03,0.04 -0.07,0.08 -0.11,0.11 -0.03,-0.03 -0.07,-0.04 -0.11,-0.04 -0.08,0 -0.15,0.07 -0.16,0.15 -0.03,0 -0.05,0.01 -0.08,0.01 -0.03,0 -0.06,-0 -0.09,-0.01 -0.01,-0.08 -0.07,-0.15 -0.16,-0.15 -0.04,0 -0.07,0.01 -0.1,0.04 -0.05,-0.03 -0.09,-0.08 -0.12,-0.12 0.02,-0.03 0.04,-0.06 0.04,-0.1 0,-0.08 -0.06,-0.15 -0.14,-0.16 -0,-0.03 -0.01,-0.05 -0.01,-0.08 0,-0.03 0,-0.06 0.01,-0.09z"/>
  </g>
 </g>
</svg>
