<?xml version="1.0" encoding="UTF-8"?>
<!DOCTYPE svg PUBLIC "-//W3C//DTD SVG 1.1//EN" "http://www.w3.org/Graphics/SVG/1.1/DTD/svg11.dtd">
<!-- Creator: CorelDRAW -->
<svg xmlns="http://www.w3.org/2000/svg" xml:space="preserve" width="4.3333mm" height="4.3333mm" version="1.1" style="shape-rendering:geometricPrecision; text-rendering:geometricPrecision; image-rendering:optimizeQuality; fill-rule:evenodd; clip-rule:evenodd"
viewBox="0 0 2.6 2.6"
 xmlns:xlink="http://www.w3.org/1999/xlink"
 xmlns:xodm="http://www.corel.com/coreldraw/odm/2003">
 <defs>
  <style type="text/css">
   <![CDATA[
    .str0 {stroke:#783BDD;stroke-width:0.06;stroke-miterlimit:22.9256}
    .fil0 {fill:none}
    .fil1 {fill:#783BDD}
   ]]>
  </style>
 </defs>
 <g id="Слой_x0020_1">
  <metadata id="CorelCorpID_0Corel-Layer"/>
  <rect class="fil0 str0" x="0.03" y="0.03" width="2.54" height="2.54" rx="0.25" ry="0.25"/>
  <g id="_2608092764640">
   <path class="fil1" d="M0.6 2.08c0,0.07 0.06,0.09 0.11,0.12 0.02,0.01 0.04,0.02 0.06,0.03 0.04,0.02 0.06,0.02 0.11,0.04 0.2,0.06 0.46,0.07 0.67,0.04 0.09,-0.01 0.19,-0.03 0.27,-0.07 0.04,-0.02 0.15,-0.07 0.18,-0.1 0.01,-0.02 0.01,-0.03 0.01,-0.05 0,-0.07 -0.04,-0.15 -0.08,-0.2 -0,-0.01 -0.01,-0.01 -0.01,-0.02 -0.02,-0.02 -0.02,-0.03 -0.04,-0.05 -0.02,-0.02 -0.06,-0.05 -0.09,-0.07 -0.01,-0.01 -0.02,-0.02 -0.04,-0.02 -0.09,-0.05 -0.16,-0.08 -0.27,-0.1 -0.01,0.01 -0.17,0.13 -0.18,0.14 -0.01,-0.01 -0.11,-0.09 -0.13,-0.1l-0.03 -0.03c-0.01,-0 -0.01,-0.01 -0.01,-0.01 -0.03,0.01 -0.06,0.02 -0.09,0.03 -0.05,0.02 -0.12,0.05 -0.17,0.08 -0.03,0.02 -0.08,0.05 -0.11,0.08 -0.03,0.03 -0.05,0.04 -0.07,0.08 -0.03,0.04 -0.04,0.05 -0.05,0.1 -0.01,0.02 -0.02,0.07 -0.02,0.1z"/>
   <path class="fil1" d="M0.93 0.91c0,0.13 0.06,0.23 0.13,0.32 0.04,0.05 0.04,0.07 0.05,0.13 0,0.02 0.01,0.06 0.03,0.06l0.08 0c0,-0.01 -0,-0.02 -0,-0.02l-0.06 -0.27c-0,-0.02 -0.02,-0.06 -0.01,-0.07 0.02,-0.03 0.06,0.01 0.1,0.04l0.02 -0.05c0.01,-0.02 0.01,-0.04 0.03,-0.04 0.02,0 0.02,0.02 0.03,0.03 0.01,0.01 0.02,0.03 0.02,0.05 0.03,-0.02 0.08,-0.07 0.1,-0.04 0.01,0.01 -0,0.05 -0.01,0.07 -0.01,0.03 -0.07,0.28 -0.07,0.29l0.08 0c0.01,0 0.02,-0.01 0.02,-0.02 0.02,-0.03 0.02,-0.06 0.03,-0.1 0.02,-0.07 0.08,-0.08 0.13,-0.23 0.03,-0.07 0.04,-0.17 0.02,-0.25 -0.03,-0.1 -0.11,-0.18 -0.2,-0.22 -0.24,-0.1 -0.53,0.06 -0.53,0.33z"/>
   <path class="fil1" d="M1.26 1.14c-0.02,0 -0.02,-0 -0.03,-0.01 -0.01,-0.01 -0.02,-0.01 -0.03,-0.02 0,0.01 0.01,0.06 0.02,0.08l0.04 0.19c0,0.01 0,0.01 0,0.02 0,0.02 -0.01,0.02 0.05,0.02 0.01,0 0.01,-0.02 0.01,-0.03 0,-0.01 0.01,-0.02 0.01,-0.04l0.05 -0.23c-0.01,0 -0.01,0 -0.01,0.01 -0.02,0.02 -0.05,0.04 -0.07,-0 -0,-0.01 -0.01,-0.02 -0.01,-0.03l-0 0c-0,0.01 -0.01,0.02 -0.01,0.03 -0,0.01 -0.01,0.02 -0.02,0.02z"/>
   <path class="fil1" d="M1.27 1.6c0.01,0.03 0.04,0.04 0.06,0.02 0.01,-0.01 0.01,-0.01 0.01,-0.02 0.05,0 0.11,-0.04 0.12,-0.08l-0.32 0c0.01,0.04 0.07,0.08 0.12,0.08z"/>
   <polygon class="fil1" points="1.13,1.49 1.47,1.49 1.47,1.44 1.13,1.44 "/>
   <path class="fil1" d="M0.6 0.93c0,0.02 0.02,0.02 0.03,0.02l0.13 0c0.04,0 0.05,-0.04 -0,-0.04 -0.03,0 -0.13,-0 -0.15,0 -0.01,0 -0.01,0.01 -0.01,0.02z"/>
   <path class="fil1" d="M1.79 0.93c0,0.02 0.01,0.02 0.03,0.02l0.14 0c0.02,0 0.03,-0.01 0.03,-0.02 -0,-0.02 -0.02,-0.02 -0.03,-0.02l-0.13 0c-0.01,0 -0.03,0.01 -0.03,0.02z"/>
   <path class="fil1" d="M0.69 0.61c0,0.02 0.03,0.03 0.05,0.04 0.01,0.01 0.09,0.05 0.1,0.05 0.02,0 0.03,-0.02 0.01,-0.04 -0.01,-0.01 -0.03,-0.02 -0.05,-0.03 -0.01,-0 -0.09,-0.05 -0.09,-0.05 -0.01,0 -0.02,0.01 -0.02,0.02z"/>
   <path class="fil1" d="M1.75 0.71c0.01,0 0.03,-0.01 0.04,-0.02l0.08 -0.04c0.03,-0.02 0.03,-0.01 0.03,-0.04 0,-0.01 -0.01,-0.02 -0.02,-0.01 -0.01,0 -0.07,0.04 -0.08,0.04 -0.01,0 -0.06,0.03 -0.06,0.04 -0.01,0.01 -0,0.03 0.02,0.03z"/>
   <path class="fil1" d="M1.72 1.17c0,0.02 0.02,0.02 0.03,0.03 0.01,0.01 0.03,0.01 0.04,0.02 0.01,0 0.08,0.04 0.08,0.04 0.02,0 0.03,-0.02 0.01,-0.04l-0.12 -0.06c-0.01,-0 -0.02,-0.01 -0.03,-0.01 -0.01,0 -0.02,0.01 -0.02,0.02z"/>
   <path class="fil1" d="M0.72 1.26c0.01,0 0.07,-0.03 0.08,-0.04 0.01,-0.01 0.07,-0.03 0.07,-0.05 0,-0.01 -0,-0.03 -0.02,-0.03l-0.13 0.07c-0.03,0.02 -0.01,0.04 0.01,0.04z"/>
   <path class="fil1" d="M1.28 0.32l0 0.12c0,0.03 0.04,0.04 0.04,-0l0 -0.12c0,-0.01 -0,-0.01 -0.01,-0.02 -0.01,-0.02 -0.04,-0.01 -0.04,0.02z"/>
   <path class="fil1" d="M1.53 0.51c0,0.02 0.03,0.03 0.04,0.01 0,-0.01 0.01,-0.01 0.01,-0.02l0.07 -0.11c0,-0.03 -0.02,-0.03 -0.04,-0.01 -0.01,0.01 -0.08,0.12 -0.08,0.13z"/>
   <path class="fil1" d="M0.94 0.39c0,0.01 0.03,0.06 0.04,0.07 0.01,0.01 0.02,0.02 0.02,0.04 0,0 0.02,0.05 0.04,0.03 0.02,-0.02 -0,-0.03 -0.01,-0.05l-0.05 -0.07c-0.01,-0.01 -0.01,-0.03 -0.03,-0.03 -0.01,0 -0.02,0.01 -0.02,0.02z"/>
  </g>
 </g>
</svg>
