<?xml version="1.0" encoding="UTF-8"?>
<!DOCTYPE svg PUBLIC "-//W3C//DTD SVG 1.1//EN" "http://www.w3.org/Graphics/SVG/1.1/DTD/svg11.dtd">
<!-- Creator: CorelDRAW -->
<svg xmlns="http://www.w3.org/2000/svg" xml:space="preserve" width="4.3333mm" height="4.3333mm" version="1.1" style="shape-rendering:geometricPrecision; text-rendering:geometricPrecision; image-rendering:optimizeQuality; fill-rule:evenodd; clip-rule:evenodd"
viewBox="0 0 2.64 2.64"
 xmlns:xlink="http://www.w3.org/1999/xlink"
 xmlns:xodm="http://www.corel.com/coreldraw/odm/2003">
 <defs>
  <style type="text/css">
   <![CDATA[
    .str0 {stroke:#783BDD;stroke-width:0.06;stroke-miterlimit:22.9256}
    .fil0 {fill:none}
    .fil1 {fill:#783BDD}
   ]]>
  </style>
 </defs>
 <g id="Слой_x0020_1">
  <metadata id="CorelCorpID_0Corel-Layer"/>
  <rect class="fil0 str0" x="0.03" y="0.03" width="2.58" height="2.58" rx="0.26" ry="0.26"/>
  <path class="fil1" d="M0.69 1.33c0.01,-0.34 0.29,-0.62 0.63,-0.62 0.35,0 0.63,0.28 0.63,0.62 -0.01,0.02 -0.03,0.04 -0.06,0.04 -0.03,0 -0.05,-0.02 -0.06,-0.05 -0.01,-0.28 -0.24,-0.5 -0.51,-0.5 -0.28,0 -0.51,0.22 -0.51,0.5 -0.01,0.03 -0.03,0.05 -0.06,0.05 -0.03,0 -0.05,-0.02 -0.06,-0.04zm1.32 -0.36c0.05,0.1 0.07,0.21 0.07,0.32l0 0.86c0,0.11 -0.09,0.2 -0.2,0.2l-1.11 0c-0.11,0 -0.2,-0.09 -0.2,-0.2l0 -0.86c0,-0.11 0.02,-0.21 0.07,-0.3l-0.15 -0.44c-0.01,-0.03 0.01,-0.05 0.03,-0.06l0.19 -0.07c0.03,-0.01 0.05,0.01 0.06,0.03l0.09 0.26c0.05,-0.04 0.1,-0.07 0.15,-0.09 -0,-0.01 -0,-0.02 -0,-0.04 0,-0.16 0.14,-0.29 0.32,-0.29 0.18,0 0.32,0.13 0.32,0.29 0,0.01 -0,0.03 -0,0.04 0.05,0.02 0.09,0.05 0.14,0.08l0.09 -0.25c0.01,-0.03 0.04,-0.04 0.06,-0.03l0.19 0.07c0.03,0.01 0.04,0.04 0.03,0.06l-0.15 0.43zm-0.45 -0.39c-0.07,-0.02 -0.15,-0.04 -0.23,-0.04 -0.08,0 -0.16,0.01 -0.23,0.04 0,-0 0,-0 0,-0 0,-0.12 0.1,-0.21 0.23,-0.21 0.13,0 0.23,0.09 0.23,0.21 0,0 0,0 -0,0zm-0.74 1.16l1.01 0 0 0.29 -1.01 0 0 -0.29zm-0.07 -0.11l1.14 0c0.02,0 0.04,0.02 0.04,0.04l0 0.43c0,0.02 -0.02,0.04 -0.04,0.04l-1.14 0c-0.02,0 -0.04,-0.02 -0.04,-0.04l0 -0.43c0,-0.02 0.02,-0.04 0.04,-0.04z"/>
 </g>
</svg>
