<?xml version="1.0" encoding="UTF-8"?>
<!DOCTYPE svg PUBLIC "-//W3C//DTD SVG 1.1//EN" "http://www.w3.org/Graphics/SVG/1.1/DTD/svg11.dtd">
<!-- Creator: CorelDRAW -->
<svg xmlns="http://www.w3.org/2000/svg" xml:space="preserve" width="4.3333mm" height="4.3333mm" version="1.1" style="shape-rendering:geometricPrecision; text-rendering:geometricPrecision; image-rendering:optimizeQuality; fill-rule:evenodd; clip-rule:evenodd"
viewBox="0 0 2.68 2.68"
 xmlns:xlink="http://www.w3.org/1999/xlink"
 xmlns:xodm="http://www.corel.com/coreldraw/odm/2003">
 <defs>
  <style type="text/css">
   <![CDATA[
    .str0 {stroke:#50AEAB;stroke-width:0.06;stroke-miterlimit:22.9256}
    .fil0 {fill:none}
    .fil1 {fill:#50AEAB}
   ]]>
  </style>
 </defs>
 <g id="Слой_x0020_1">
  <metadata id="CorelCorpID_0Corel-Layer"/>
  <rect class="fil0 str0" x="0.03" y="0.03" width="2.62" height="2.62" rx="0.26" ry="0.26"/>
  <g id="_2646152843296">
   <path class="fil1" d="M0.29 2.15c0,0.01 0.01,0.04 0.04,0.04 0.02,0 0.1,-0.04 0.12,-0.05l0.12 -0.05c0.02,-0.01 0.06,0.04 0.1,0.07 0.04,0.03 0.07,0.05 0.11,0.07 0.04,0.02 0.07,0.04 0.11,0.06 0.12,0.05 0.14,0.06 0.26,0.09 0.04,0.01 0.15,0.02 0.21,0.02l0.03 0c0.02,-0 0.02,-0 0.03,-0 0.01,-0 0.03,0 0.04,-0 0.14,-0.01 0.28,-0.05 0.41,-0.11 0.1,-0.05 0.23,-0.13 0.31,-0.21 0.06,-0.06 0.11,-0.09 0.06,-0.14l-0.18 -0.16c-0.05,-0.04 -0.08,-0.08 -0.12,-0.04 -0.01,0.01 -0.01,0.02 -0.02,0.03 -0.07,0.06 -0.08,0.08 -0.19,0.13 -0.18,0.09 -0.37,0.11 -0.56,0.06 -0.04,-0.01 -0.08,-0.03 -0.12,-0.05l-0.03 -0.02c-0.01,-0 -0,-0 -0.01,-0.01 0.03,-0.01 0.08,-0.03 0.11,-0.05 0.12,-0.05 0.11,-0.07 0.01,-0.14l-0.27 -0.19c-0.13,-0.09 -0.27,-0.2 -0.4,-0.28 -0.09,-0.06 -0.09,0.04 -0.09,0.09 -0.01,0.09 -0.02,0.18 -0.03,0.28 -0.01,0.06 -0.05,0.5 -0.05,0.56z"/>
   <path class="fil1" d="M0.41 0.71c0,0.04 0.04,0.06 0.08,0.09l0.11 0.09c0.01,0.01 0.01,0.01 0.02,0.02 0.01,0.01 0.02,0.02 0.03,0.03 0.06,0.06 0.09,-0 0.11,-0.02 0.11,-0.1 0.19,-0.15 0.34,-0.19 0.18,-0.05 0.41,-0.03 0.57,0.07 0.01,0 0,0 0.01,0.01 -0.02,0.01 -0.12,0.05 -0.16,0.07 -0.04,0.02 -0.05,0.06 -0.01,0.09 0.01,0.01 0.03,0.02 0.05,0.03l0.66 0.47c0.09,0.06 0.09,-0.04 0.09,-0.09 0.01,-0.09 0.02,-0.18 0.03,-0.28 0.01,-0.09 0.02,-0.19 0.03,-0.28 0,-0.05 0.01,-0.09 0.01,-0.14 0,-0.04 0.01,-0.08 0.01,-0.11l0 -0.03c-0,-0.03 -0.01,-0.05 -0.04,-0.05 -0.02,0 -0.04,0.01 -0.06,0.02l-0.12 0.05c-0.11,0.06 -0.04,0.02 -0.26,-0.11 -0.13,-0.08 -0.3,-0.14 -0.45,-0.16 -0.03,-0 -0.1,-0.01 -0.14,-0.01l-0.03 0c-0.02,0 -0.02,0 -0.03,0 -0.06,0 -0.04,-0 -0.12,0.01 -0.11,0.01 -0.24,0.06 -0.33,0.1 -0.1,0.05 -0.23,0.13 -0.31,0.21 -0.02,0.02 -0.08,0.07 -0.08,0.1z"/>
  </g>
 </g>
</svg>
