<?xml version="1.0" encoding="UTF-8"?>
<!DOCTYPE svg PUBLIC "-//W3C//DTD SVG 1.1//EN" "http://www.w3.org/Graphics/SVG/1.1/DTD/svg11.dtd">
<!-- Creator: CorelDRAW -->
<svg xmlns="http://www.w3.org/2000/svg" xml:space="preserve" width="4.3333mm" height="4.3333mm" version="1.1" style="shape-rendering:geometricPrecision; text-rendering:geometricPrecision; image-rendering:optimizeQuality; fill-rule:evenodd; clip-rule:evenodd"
viewBox="0 0 2.76 2.76"
 xmlns:xlink="http://www.w3.org/1999/xlink"
 xmlns:xodm="http://www.corel.com/coreldraw/odm/2003">
 <defs>
  <style type="text/css">
   <![CDATA[
    .str0 {stroke:#50AEAB;stroke-width:0.06;stroke-miterlimit:22.9256}
    .fil0 {fill:none}
    .fil1 {fill:#50AEAB}
   ]]>
  </style>
 </defs>
 <g id="Слой_x0020_1">
  <metadata id="CorelCorpID_0Corel-Layer"/>
  <rect class="fil0 str0" x="0.03" y="0.03" width="2.69" height="2.69" rx="0.27" ry="0.27"/>
  <g id="_2646162374912">
   <path class="fil1" d="M1.29 0.74l0.07 -0.14c0,-0.01 0.01,-0.01 0.01,-0.02 0,-0.01 0.01,-0.02 0.01,-0.02 0.01,0 0.01,0.01 0.01,0.02l0.08 0.16c0.01,0 0.19,0.02 0.2,0.03 0,0 0.01,0 0,0.01 -0,0 0,0 -0,0 -0,0.01 -0.14,0.14 -0.14,0.14l0.03 0.15c0.01,0.07 0.02,0.05 -0.06,0.01l-0.11 -0.06c-0.05,0.03 -0.12,0.06 -0.17,0.09 -0.02,0.01 -0.01,-0.01 -0.01,-0.03 0,-0.02 0.01,-0.04 0.01,-0.06 0.02,-0.14 0.03,-0.1 -0.02,-0.14l-0.1 -0.1c-0.02,-0.02 -0.01,-0.02 0.02,-0.02 0.02,-0 0.04,-0.01 0.06,-0.01l0.11 -0.02zm0.62 0.43l0.02 -0.07c0.03,-0.11 0.07,-0.27 0.08,-0.38l0.01 -0.08c0,-0.02 0,-0.04 0,-0.06 0,-0.01 0,-0.01 0,-0.02 0.06,-0.01 0.06,-0.02 0.14,-0.02 0.06,0 0.08,0.04 0.08,0.1 0,0.09 -0.04,0.18 -0.08,0.24 -0.01,0.02 -0.03,0.05 -0.04,0.07 -0.02,0.03 -0.07,0.09 -0.1,0.12l-0.08 0.08c-0.01,0.01 -0.02,0.02 -0.03,0.03zm-1.39 -0.53c0,-0.03 0.01,-0.06 0.02,-0.07 0.03,-0.04 0.11,-0.03 0.15,-0.02 0.01,0 0.02,0 0.03,0.01 0.01,0 0.02,0.01 0.03,0.01 0,0.01 0,0.01 0,0.02 0,0.01 -0,0.01 0,0.02 0,0.01 0,0.03 0,0.04 0,0.03 0.01,0.06 0.01,0.08 0.01,0.13 0.05,0.29 0.09,0.41 0,0.01 0.01,0.02 0.01,0.03 -0.04,-0.02 -0.1,-0.08 -0.13,-0.12 -0,-0.01 -0.01,-0.01 -0.01,-0.01l-0.04 -0.04c-0.07,-0.09 -0.16,-0.24 -0.16,-0.36zm0.22 -0.23c-0.03,-0 -0.05,-0.02 -0.12,-0.02 -0.1,0 -0.19,0.04 -0.22,0.13 -0.03,0.07 -0.02,0.15 -0.01,0.23 0.03,0.11 0.08,0.21 0.15,0.3l0.05 0.06c0.03,0.03 0.05,0.06 0.08,0.09l0.03 0.03c0.02,0.02 0.08,0.07 0.11,0.09 0.05,0.03 0.1,0.07 0.16,0.1 0.02,0.01 0.02,0.01 0.03,0.02 0.02,0.03 0.08,0.09 0.11,0.12 0.03,0.03 0.06,0.05 0.1,0.07l0 0.02c-0.01,0 -0.03,0.02 -0.04,0.03 -0.03,0.04 -0.02,0.1 0.02,0.14 0,0 0.01,0 0.01,0.01 0.01,0.01 0.01,-0 0.01,0.04 0,0.01 -0.03,0.06 -0.04,0.08 -0.01,0.01 -0.02,0.02 -0.02,0.03 -0.04,0.05 -0.08,0.1 -0.13,0.14 -0.02,0.02 -0.01,0.05 0.01,0.05l0.7 0c0.03,0 0.04,-0.03 0.02,-0.05 -0.04,-0.03 -0.06,-0.05 -0.09,-0.09 -0.02,-0.03 -0.04,-0.05 -0.06,-0.08 -0.01,-0.01 -0.04,-0.07 -0.04,-0.08 0,-0.05 -0,-0.03 0.02,-0.04 0.02,-0.01 0.04,-0.04 0.04,-0.07 0,-0.03 0,-0.04 -0.02,-0.07 -0.01,-0.01 -0.02,-0.03 -0.04,-0.03l0 -0.02c0.02,-0.01 0.05,-0.03 0.07,-0.04 0.01,-0.01 0.02,-0.02 0.03,-0.02 0.03,-0.03 0.08,-0.08 0.11,-0.12 0.01,-0.02 0.01,-0.01 0.03,-0.02 0.05,-0.02 0.1,-0.05 0.14,-0.08l0.06 -0.05c0.01,-0.01 0.02,-0.02 0.03,-0.03 0.01,-0.01 0.01,-0.01 0.01,-0.01l0.06 -0.05c0.01,-0.01 0.01,-0.01 0.01,-0.02 0.02,-0.02 0.04,-0.04 0.05,-0.06 0.06,-0.07 0.1,-0.14 0.14,-0.22 0,-0.01 0.01,-0.01 0.01,-0.02 0.03,-0.05 0.06,-0.16 0.06,-0.22 0,-0.08 -0.01,-0.14 -0.07,-0.2 -0.07,-0.07 -0.18,-0.07 -0.27,-0.05 -0.01,0 -0.02,0.01 -0.03,0.01 0,-0.01 -0,-0.08 -0,-0.09 -0,-0.01 -0.01,-0.01 -0.02,-0.01l-1.24 0c-0.02,0 -0.02,0.03 -0.02,0.04 0,0.02 -0,0.04 -0,0.06z"/>
   <path class="fil1" d="M0.89 2.22l0 0.21c0,0.01 0.01,0.03 0.02,0.03l0.94 0c0.01,0 0.02,-0.01 0.02,-0.03l0 -0.21c0,-0.01 -0,-0.01 -0.01,-0.02 -0,-0.01 -0.01,-0.01 -0.02,-0.01l-0.93 0c-0.02,0 -0.03,0.01 -0.03,0.02z"/>
  </g>
 </g>
</svg>
