<?xml version="1.0" encoding="UTF-8"?>
<!DOCTYPE svg PUBLIC "-//W3C//DTD SVG 1.1//EN" "http://www.w3.org/Graphics/SVG/1.1/DTD/svg11.dtd">
<!-- Creator: CorelDRAW -->
<svg xmlns="http://www.w3.org/2000/svg" xml:space="preserve" width="4.3333mm" height="4.3333mm" version="1.1" style="shape-rendering:geometricPrecision; text-rendering:geometricPrecision; image-rendering:optimizeQuality; fill-rule:evenodd; clip-rule:evenodd"
viewBox="0 0 2.68 2.68"
 xmlns:xlink="http://www.w3.org/1999/xlink"
 xmlns:xodm="http://www.corel.com/coreldraw/odm/2003">
 <defs>
  <style type="text/css">
   <![CDATA[
    .str0 {stroke:#50AEAB;stroke-width:0.06;stroke-miterlimit:22.9256}
    .fil0 {fill:none}
    .fil1 {fill:#50AEAB}
   ]]>
  </style>
 </defs>
 <g id="Слой_x0020_1">
  <metadata id="CorelCorpID_0Corel-Layer"/>
  <rect class="fil0 str0" x="0.03" y="0.03" width="2.62" height="2.62" rx="0.26" ry="0.26"/>
  <g id="_2646014858016">
   <path class="fil1" d="M1.36 1.48c0.01,-0.01 0.11,-0.09 0.13,-0.1 0.02,-0.02 0.04,-0.03 0.06,-0.05 0.11,-0.08 0.21,-0.18 0.32,-0.27 0.02,-0.02 0.04,-0.03 0.06,-0.05 0.02,-0.02 0.04,-0.03 0.06,-0.05 0.08,-0.07 0.18,-0.14 0.25,-0.21 0.04,-0.04 0.09,-0.07 0.13,-0.11l-2.08 -0c0.07,0.06 0.19,0.15 0.26,0.21 0.05,0.04 0.77,0.61 0.8,0.64z"/>
   <path class="fil1" d="M0.35 2.05l1.98 0 -0.33 -0.35c-0.01,-0.02 -0.03,-0.03 -0.04,-0.04 -0.01,-0.01 -0.01,-0.01 -0.02,-0.02 -0.01,-0.01 -0.01,-0.01 -0.02,-0.02l-0.12 -0.13c-0.01,-0.01 -0.01,-0.01 -0.02,-0.02 -0.03,-0.03 -0.07,-0.08 -0.1,-0.11l-0.27 0.23c-0.01,0.01 -0.03,0.03 -0.04,0.03l-0.34 -0.27 -0.25 0.27c-0.02,0.01 -0.03,0.03 -0.04,0.04l-0.38 0.4z"/>
   <path class="fil1" d="M0.29 1.97c0.02,-0.01 0.03,-0.03 0.04,-0.04 0.05,-0.05 0.13,-0.14 0.16,-0.17 0.01,-0.01 0.03,-0.03 0.04,-0.04l0.21 -0.22c0.02,-0.01 0.03,-0.03 0.04,-0.04 0.02,-0.02 0.16,-0.17 0.17,-0.18 -0.02,-0.01 -0.15,-0.12 -0.16,-0.13 -0.03,-0.02 -0.47,-0.38 -0.5,-0.39l0 1.22z"/>
   <path class="fil1" d="M1.75 1.28c0.01,0.02 0.06,0.07 0.08,0.09l0.12 0.13c0.01,0.01 0.03,0.03 0.04,0.04l0.04 0.04c0.01,0.02 0.02,0.03 0.04,0.04l0.08 0.09c0.05,0.06 0.14,0.15 0.2,0.21l0.04 0.04 -0 -1.22 -0.48 0.4c-0.03,0.02 -0.05,0.04 -0.08,0.07l-0.08 0.07z"/>
  </g>
 </g>
</svg>
