<?xml version="1.0" encoding="UTF-8"?>
<!DOCTYPE svg PUBLIC "-//W3C//DTD SVG 1.1//EN" "http://www.w3.org/Graphics/SVG/1.1/DTD/svg11.dtd">
<!-- Creator: CorelDRAW -->
<svg xmlns="http://www.w3.org/2000/svg" xml:space="preserve" width="4.3333mm" height="4.3333mm" version="1.1" style="shape-rendering:geometricPrecision; text-rendering:geometricPrecision; image-rendering:optimizeQuality; fill-rule:evenodd; clip-rule:evenodd"
viewBox="0 0 2.76 2.76"
 xmlns:xlink="http://www.w3.org/1999/xlink"
 xmlns:xodm="http://www.corel.com/coreldraw/odm/2003">
 <defs>
  <style type="text/css">
   <![CDATA[
    .str0 {stroke:#50AEAB;stroke-width:0.06;stroke-miterlimit:22.9256}
    .str1 {stroke:#50AEAB;stroke-width:0.05;stroke-miterlimit:22.9256}
    .fil0 {fill:none}
    .fil1 {fill:#50AEAB}
   ]]>
  </style>
 </defs>
 <g id="Слой_x0020_1">
  <metadata id="CorelCorpID_0Corel-Layer"/>
  <rect class="fil0 str0" x="0.03" y="0.03" width="2.69" height="2.69" rx="0.27" ry="0.27"/>
  <g>
   <path class="fil1" d="M0.97 0.3l0.81 0c0.08,0 0.15,0.07 0.15,0.15l0 1.86c0,0.08 -0.07,0.15 -0.15,0.15l-0.81 0c-0.08,0 -0.15,-0.07 -0.15,-0.15l0 -1.86c0,-0.08 0.07,-0.15 0.15,-0.15zm0.68 0.07l0.13 0c0.04,0 0.08,0.04 0.08,0.08l0 1.85c0,0.04 -0.04,0.08 -0.08,0.08l-0.8 0c-0.04,0 -0.08,-0.04 -0.08,-0.08l0 -1.85c0,-0.04 0.04,-0.08 0.08,-0.08l0.13 0 0.55 0zm-0.67 0l0.12 0c0.03,0 0.05,0.02 0.05,0.05l0 0 0 0c0,0.03 0.02,0.05 0.05,0.05l0.38 0c0.03,0 0.05,-0.02 0.05,-0.05l0 -0 0 -0c0,-0.03 0.02,-0.05 0.05,-0.05l0.11 0 -0.8 0z"/>
   <path id="_1" class="fil0 str1" d="M0.97 0.3l0.81 0c0.08,0 0.15,0.07 0.15,0.15l0 1.86c0,0.08 -0.07,0.15 -0.15,0.15l-0.81 0c-0.08,0 -0.15,-0.07 -0.15,-0.15l0 -1.86c0,-0.08 0.07,-0.15 0.15,-0.15zm0.68 0.07l0.13 0c0.04,0 0.08,0.04 0.08,0.08l0 1.85c0,0.04 -0.04,0.08 -0.08,0.08l-0.8 0c-0.04,0 -0.08,-0.04 -0.08,-0.08l0 -1.85c0,-0.04 0.04,-0.08 0.08,-0.08l0.13 0m-0.13 0l0.12 0c0.03,0 0.05,0.02 0.05,0.05l0 0 0 0c0,0.03 0.02,0.05 0.05,0.05l0.38 0c0.03,0 0.05,-0.02 0.05,-0.05l0 -0 0 -0c0,-0.03 0.02,-0.05 0.05,-0.05l0.11 0"/>
  </g>
 </g>
</svg>
