<?xml version="1.0" encoding="UTF-8"?>
<!DOCTYPE svg PUBLIC "-//W3C//DTD SVG 1.1//EN" "http://www.w3.org/Graphics/SVG/1.1/DTD/svg11.dtd">
<!-- Creator: CorelDRAW -->
<svg xmlns="http://www.w3.org/2000/svg" xml:space="preserve" width="4.3333mm" height="4.3333mm" version="1.1" style="shape-rendering:geometricPrecision; text-rendering:geometricPrecision; image-rendering:optimizeQuality; fill-rule:evenodd; clip-rule:evenodd"
viewBox="0 0 2.72 2.72"
 xmlns:xlink="http://www.w3.org/1999/xlink"
 xmlns:xodm="http://www.corel.com/coreldraw/odm/2003">
 <defs>
  <style type="text/css">
   <![CDATA[
    .str0 {stroke:#50AEAB;stroke-width:0.06;stroke-miterlimit:22.9256}
    .fil0 {fill:none}
    .fil1 {fill:#50AEAB}
   ]]>
  </style>
 </defs>
 <g id="Слой_x0020_1">
  <metadata id="CorelCorpID_0Corel-Layer"/>
  <rect class="fil0 str0" x="0.03" y="0.03" width="2.65" height="2.65" rx="0.27" ry="0.27"/>
  <g id="_2646205346672">
   <path class="fil1" d="M1.34 0.81c-0.03,0.01 -0.1,0.09 -0.12,0.12 -0.04,0.04 -0.13,0.13 -0.18,0.18 -0.02,0.02 -0.04,0.04 -0.06,0.06l-0.21 0.21c-0.04,0.04 -0.13,0.11 -0.14,0.16 -0.01,0.04 -0,0.41 -0,0.48 0,0.07 -0.01,0.16 0.02,0.22 0.02,0.05 0.07,0.1 0.12,0.12 0.06,0.03 0.15,0.02 0.22,0.02 0.05,0 0.07,0 0.07,-0.05 0,-0.14 -0.02,-0.48 0.02,-0.58 0.11,-0.26 0.49,-0.25 0.57,0.03 0.02,0.08 0.01,0.37 0.01,0.47 0,0.13 -0.02,0.13 0.11,0.13 0.08,-0 0.15,0.01 0.21,-0.03 0.14,-0.08 0.11,-0.22 0.11,-0.37 0,-0.08 0.01,-0.43 -0.01,-0.47 -0.02,-0.03 -0.09,-0.1 -0.12,-0.12 -0.15,-0.14 -0.3,-0.3 -0.46,-0.45l-0.09 -0.09c-0.01,-0.01 -0.04,-0.05 -0.07,-0.04z"/>
   <path class="fil1" d="M2.09 1.02l0 -0.47c-0,-0.13 -0.08,-0.13 -0.16,-0.13 -0.14,-0 -0.11,0.15 -0.11,0.26l-0 0.08 -0.12 -0.12c-0.03,-0.04 -0.09,-0.08 -0.12,-0.12l-0.12 -0.12c-0.12,-0.11 -0.07,-0.12 -0.26,0.07 -0.04,0.04 -0.08,0.08 -0.12,0.12l-0.61 0.6c-0.04,0.04 -0.08,0.08 -0.13,0.12 -0.08,0.08 -0.01,0.21 0.1,0.18 0.04,-0.01 0.11,-0.08 0.14,-0.11 0.06,-0.06 0.12,-0.12 0.19,-0.18l0.24 -0.24c0.04,-0.04 0.14,-0.13 0.18,-0.18l0.06 -0.06c0.02,-0.02 0.04,-0.04 0.06,-0.06 0.07,-0.06 0.11,0 0.15,0.04 0.02,0.02 0.04,0.04 0.06,0.06l0.61 0.6c0.02,0.02 0.11,0.11 0.13,0.12 0.07,0.03 0.14,-0.01 0.15,-0.06 0.03,-0.08 -0.05,-0.12 -0.08,-0.16 -0.03,-0.04 -0.24,-0.22 -0.24,-0.25z"/>
  </g>
 </g>
</svg>
